<mxfile host="app.diagrams.net" modified="2022-01-24T03:13:54.625Z" agent="5.0 (Windows NT 10.0; Win64; x64) AppleWebKit/537.36 (KHTML, like Gecko) Chrome/97.0.4692.71 Safari/537.36" etag="okKnaJ5nsnXrvOaC5e7U" version="16.4.5" type="github">
  <diagram id="C5RBs43oDa-KdzZeNtuy" name="Page-1">
    <mxGraphModel dx="1483" dy="701" grid="0" gridSize="10" guides="1" tooltips="1" connect="1" arrows="1" fold="1" page="1" pageScale="1" pageWidth="827" pageHeight="1169" math="0" shadow="0">
      <root>
        <mxCell id="WIyWlLk6GJQsqaUBKTNV-0" />
        <mxCell id="WIyWlLk6GJQsqaUBKTNV-1" parent="WIyWlLk6GJQsqaUBKTNV-0" />
        <mxCell id="2LKNo2eYCeqq34Gth3yV-3" value="" style="edgeStyle=orthogonalEdgeStyle;rounded=0;orthogonalLoop=1;jettySize=auto;html=1;fontSize=16;" edge="1" parent="WIyWlLk6GJQsqaUBKTNV-1" source="2LKNo2eYCeqq34Gth3yV-0" target="2LKNo2eYCeqq34Gth3yV-1">
          <mxGeometry relative="1" as="geometry" />
        </mxCell>
        <mxCell id="2LKNo2eYCeqq34Gth3yV-0" value="使用jieba分词组件对随访记录中患者描述部分进行分词并使用UTF-8编码" style="rounded=0;whiteSpace=wrap;html=1;fontSize=16;" vertex="1" parent="WIyWlLk6GJQsqaUBKTNV-1">
          <mxGeometry x="145" y="168" width="193" height="76" as="geometry" />
        </mxCell>
        <mxCell id="2LKNo2eYCeqq34Gth3yV-4" value="" style="edgeStyle=orthogonalEdgeStyle;rounded=0;orthogonalLoop=1;jettySize=auto;html=1;fontSize=16;" edge="1" parent="WIyWlLk6GJQsqaUBKTNV-1" source="2LKNo2eYCeqq34Gth3yV-1" target="2LKNo2eYCeqq34Gth3yV-2">
          <mxGeometry relative="1" as="geometry" />
        </mxCell>
        <mxCell id="2LKNo2eYCeqq34Gth3yV-1" value="使用word2vec模型将分词结果转化为词向量" style="rounded=0;whiteSpace=wrap;html=1;fontSize=16;" vertex="1" parent="WIyWlLk6GJQsqaUBKTNV-1">
          <mxGeometry x="145" y="304" width="193" height="60" as="geometry" />
        </mxCell>
        <mxCell id="2LKNo2eYCeqq34Gth3yV-2" value="根据词向量训练用于情感特征提取的LSTM模型" style="rounded=0;whiteSpace=wrap;html=1;fontSize=16;" vertex="1" parent="WIyWlLk6GJQsqaUBKTNV-1">
          <mxGeometry x="145" y="424" width="193" height="60" as="geometry" />
        </mxCell>
        <mxCell id="2LKNo2eYCeqq34Gth3yV-5" value="模型训练阶段" style="text;html=1;align=center;verticalAlign=middle;resizable=0;points=[];autosize=1;strokeColor=none;fillColor=none;fontSize=16;" vertex="1" parent="WIyWlLk6GJQsqaUBKTNV-1">
          <mxGeometry x="188.5" y="109" width="106" height="23" as="geometry" />
        </mxCell>
        <mxCell id="2LKNo2eYCeqq34Gth3yV-10" value="" style="edgeStyle=orthogonalEdgeStyle;rounded=0;orthogonalLoop=1;jettySize=auto;html=1;fontSize=16;" edge="1" parent="WIyWlLk6GJQsqaUBKTNV-1" source="2LKNo2eYCeqq34Gth3yV-6" target="2LKNo2eYCeqq34Gth3yV-9">
          <mxGeometry relative="1" as="geometry" />
        </mxCell>
        <mxCell id="2LKNo2eYCeqq34Gth3yV-6" value="将随访记录转化为特征向量组" style="rounded=0;whiteSpace=wrap;html=1;fontSize=16;" vertex="1" parent="WIyWlLk6GJQsqaUBKTNV-1">
          <mxGeometry x="489" y="168" width="193" height="60" as="geometry" />
        </mxCell>
        <mxCell id="2LKNo2eYCeqq34Gth3yV-7" value="数据集构造阶段" style="text;html=1;align=center;verticalAlign=middle;resizable=0;points=[];autosize=1;strokeColor=none;fillColor=none;fontSize=16;" vertex="1" parent="WIyWlLk6GJQsqaUBKTNV-1">
          <mxGeometry x="524.5" y="109" width="122" height="23" as="geometry" />
        </mxCell>
        <mxCell id="2LKNo2eYCeqq34Gth3yV-12" value="" style="edgeStyle=orthogonalEdgeStyle;rounded=0;orthogonalLoop=1;jettySize=auto;html=1;fontSize=16;" edge="1" parent="WIyWlLk6GJQsqaUBKTNV-1" source="2LKNo2eYCeqq34Gth3yV-9" target="2LKNo2eYCeqq34Gth3yV-11">
          <mxGeometry relative="1" as="geometry" />
        </mxCell>
        <mxCell id="2LKNo2eYCeqq34Gth3yV-9" value="对特征向量组进行缺失值处理" style="rounded=0;whiteSpace=wrap;html=1;fontSize=16;" vertex="1" parent="WIyWlLk6GJQsqaUBKTNV-1">
          <mxGeometry x="489" y="296" width="193" height="60" as="geometry" />
        </mxCell>
        <mxCell id="2LKNo2eYCeqq34Gth3yV-14" value="" style="edgeStyle=orthogonalEdgeStyle;rounded=0;orthogonalLoop=1;jettySize=auto;html=1;fontSize=16;" edge="1" parent="WIyWlLk6GJQsqaUBKTNV-1" source="2LKNo2eYCeqq34Gth3yV-11" target="2LKNo2eYCeqq34Gth3yV-13">
          <mxGeometry relative="1" as="geometry" />
        </mxCell>
        <mxCell id="2LKNo2eYCeqq34Gth3yV-11" value="对特征向量组进行离散值处理并建立特征值映射表" style="rounded=0;whiteSpace=wrap;html=1;fontSize=16;" vertex="1" parent="WIyWlLk6GJQsqaUBKTNV-1">
          <mxGeometry x="489" y="424" width="193" height="60" as="geometry" />
        </mxCell>
        <mxCell id="2LKNo2eYCeqq34Gth3yV-16" value="" style="edgeStyle=orthogonalEdgeStyle;rounded=0;orthogonalLoop=1;jettySize=auto;html=1;fontSize=16;" edge="1" parent="WIyWlLk6GJQsqaUBKTNV-1" source="2LKNo2eYCeqq34Gth3yV-13" target="2LKNo2eYCeqq34Gth3yV-15">
          <mxGeometry relative="1" as="geometry" />
        </mxCell>
        <mxCell id="2LKNo2eYCeqq34Gth3yV-13" value="对特征向量组使用模型构造阶段训练的LSTM模型将患者描述中的文本内容转化为情感评分" style="rounded=0;whiteSpace=wrap;html=1;fontSize=16;" vertex="1" parent="WIyWlLk6GJQsqaUBKTNV-1">
          <mxGeometry x="489" y="552" width="193" height="95" as="geometry" />
        </mxCell>
        <mxCell id="2LKNo2eYCeqq34Gth3yV-15" value="对特征向量组进行正常/异常标签判别并建立数据集" style="rounded=0;whiteSpace=wrap;html=1;fontSize=16;" vertex="1" parent="WIyWlLk6GJQsqaUBKTNV-1">
          <mxGeometry x="489" y="715" width="193" height="60" as="geometry" />
        </mxCell>
      </root>
    </mxGraphModel>
  </diagram>
</mxfile>
